ISO-10303-21;
HEADER;
FILE_DESCRIPTION((''),'2;1');
FILE_NAME('321511790','2026-09-04T10:15:49',('16280'),(''),
'CREO PARAMETRIC BY PTC INC, 2022124','CREO PARAMETRIC BY PTC INC, 2022124','');
FILE_SCHEMA((
'AP242_MANAGED_MODEL_BASED_3D_ENGINEERING_MIM_LF { 1 0 10303 442 1 1 4 }'));
ENDSEC;
DATA;
#16=CARTESIAN_POINT('',(0.E0,0.E0,0.E0));
#17=DIRECTION('',(0.E0,1.E0,0.E0));
#18=DIRECTION('',(1.E0,0.E0,0.E0));
#19=AXIS2_PLACEMENT_3D('',#16,#17,#18);
#21=DIRECTION('',(0.E0,1.E0,0.E0));
#22=VECTOR('',#21,1.9E0);
#23=CARTESIAN_POINT('',(1.5475E1,0.E0,0.E0));
#24=LINE('',#23,#22);
#25=CARTESIAN_POINT('',(0.E0,0.E0,0.E0));
#26=DIRECTION('',(0.E0,-1.E0,0.E0));
#27=DIRECTION('',(1.E0,0.E0,0.E0));
#28=AXIS2_PLACEMENT_3D('',#25,#26,#27);
#30=DIRECTION('',(0.E0,1.E0,0.E0));
#31=VECTOR('',#30,1.9E0);
#32=CARTESIAN_POINT('',(-1.5475E1,0.E0,0.E0));
#33=LINE('',#32,#31);
#34=CARTESIAN_POINT('',(0.E0,0.E0,0.E0));
#35=DIRECTION('',(0.E0,1.E0,0.E0));
#36=DIRECTION('',(1.E0,0.E0,0.E0));
#37=AXIS2_PLACEMENT_3D('',#34,#35,#36);
#39=CARTESIAN_POINT('',(0.E0,0.E0,0.E0));
#40=DIRECTION('',(0.E0,1.E0,0.E0));
#41=DIRECTION('',(-1.E0,0.E0,0.E0));
#42=AXIS2_PLACEMENT_3D('',#39,#40,#41);
#44=CARTESIAN_POINT('',(1.359949493661E1,7.E0,1.191338694362E-12));
#45=DIRECTION('',(8.760353553683E-14,0.E0,-1.E0));
#46=DIRECTION('',(0.E0,-1.E0,0.E0));
#47=AXIS2_PLACEMENT_3D('',#44,#45,#46);
#49=CARTESIAN_POINT('',(-1.359949493661E1,7.E0,-1.194142007499E-12));
#50=DIRECTION('',(-8.780823290699E-14,0.E0,1.E0));
#51=DIRECTION('',(0.E0,-1.E0,0.E0));
#52=AXIS2_PLACEMENT_3D('',#49,#50,#51);
#54=CARTESIAN_POINT('',(0.E0,2.050252531694E0,0.E0));
#55=DIRECTION('',(0.E0,1.E0,0.E0));
#56=DIRECTION('',(-1.E0,0.E0,0.E0));
#57=AXIS2_PLACEMENT_3D('',#54,#55,#56);
#59=DIRECTION('',(7.071067811865E-1,-7.071067811865E-1,-7.018188905311E-13));
#60=VECTOR('',#59,3.060303038033E0);
#61=CARTESIAN_POINT('',(6.485786437627E0,4.214213562373E0,1.615249600739E-12));
#62=LINE('',#61,#60);
#63=CARTESIAN_POINT('',(0.E0,4.214213562373E0,0.E0));
#64=DIRECTION('',(0.E0,-1.E0,0.E0));
#65=DIRECTION('',(1.E0,0.E0,0.E0));
#66=AXIS2_PLACEMENT_3D('',#63,#64,#65);
#68=DIRECTION('',(-7.071067811865E-1,-7.071067811865E-1,7.016357989628E-13));
#69=VECTOR('',#68,3.060303038033E0);
#70=CARTESIAN_POINT('',(-6.485786437627E0,4.214213562373E0,
-1.614914799108E-12));
#71=LINE('',#70,#69);
#72=CARTESIAN_POINT('',(0.E0,2.050252531694E0,0.E0));
#73=DIRECTION('',(0.E0,1.E0,0.E0));
#74=DIRECTION('',(1.E0,0.E0,0.E0));
#75=AXIS2_PLACEMENT_3D('',#72,#73,#74);
#77=CARTESIAN_POINT('',(0.E0,4.214213562373E0,0.E0));
#78=DIRECTION('',(0.E0,-1.E0,0.E0));
#79=DIRECTION('',(-1.E0,0.E0,0.E0));
#80=AXIS2_PLACEMENT_3D('',#77,#78,#79);
#82=CARTESIAN_POINT('',(-5.071572875254E0,2.8E0,3.009099913687E-11));
#83=DIRECTION('',(-5.933266031266E-12,0.E0,-1.E0));
#84=DIRECTION('',(-7.071067811863E-1,7.071067811868E-1,4.195452986786E-12));
#85=AXIS2_PLACEMENT_3D('',#82,#83,#84);
#87=CARTESIAN_POINT('',(5.071572875254E0,2.8E0,-3.009162363732E-11));
#88=DIRECTION('',(5.933389196633E-12,0.E0,1.E0));
#89=DIRECTION('',(7.071067811863E-1,7.071067811868E-1,-4.195539394861E-12));
#90=AXIS2_PLACEMENT_3D('',#87,#88,#89);
#92=CARTESIAN_POINT('',(0.E0,4.8E0,0.E0));
#93=DIRECTION('',(0.E0,-1.E0,0.E0));
#94=DIRECTION('',(1.E0,0.E0,0.E0));
#95=AXIS2_PLACEMENT_3D('',#92,#93,#94);
#97=CARTESIAN_POINT('',(0.E0,4.8E0,0.E0));
#98=DIRECTION('',(0.E0,-1.E0,0.E0));
#99=DIRECTION('',(-1.E0,0.E0,0.E0));
#100=AXIS2_PLACEMENT_3D('',#97,#98,#99);
#102=CARTESIAN_POINT('',(0.E0,1.9E0,0.E0));
#103=DIRECTION('',(0.E0,-1.E0,0.E0));
#104=DIRECTION('',(1.E0,0.E0,0.E0));
#105=AXIS2_PLACEMENT_3D('',#102,#103,#104);
#107=CARTESIAN_POINT('',(0.E0,1.9E0,0.E0));
#108=DIRECTION('',(0.E0,1.E0,0.E0));
#109=DIRECTION('',(1.E0,0.E0,0.E0));
#110=AXIS2_PLACEMENT_3D('',#107,#108,#109);
#112=CARTESIAN_POINT('',(0.E0,1.9E0,0.E0));
#113=DIRECTION('',(0.E0,-1.E0,0.E0));
#114=DIRECTION('',(1.E0,0.E0,0.E0));
#115=AXIS2_PLACEMENT_3D('',#112,#113,#114);
#117=CARTESIAN_POINT('',(0.E0,1.9E0,0.E0));
#118=DIRECTION('',(0.E0,-1.E0,0.E0));
#119=DIRECTION('',(-1.E0,0.E0,0.E0));
#120=AXIS2_PLACEMENT_3D('',#117,#118,#119);
#122=CARTESIAN_POINT('',(1.438650070512E1,8.9E0,-3.685746152726E-12));
#123=DIRECTION('',(2.561952386348E-13,0.E0,1.E0));
#124=DIRECTION('',(-7.071067811865E-1,-7.071067811866E-1,1.811576977235E-13));
#125=AXIS2_PLACEMENT_3D('',#122,#123,#124);
#127=CARTESIAN_POINT('',(0.E0,3.950252531694E0,0.E0));
#128=DIRECTION('',(0.E0,-1.E0,0.E0));
#129=DIRECTION('',(1.E0,0.E0,0.E0));
#130=AXIS2_PLACEMENT_3D('',#127,#128,#129);
#132=DIRECTION('',(7.071067811865E-1,7.071067811865E-1,2.976907916200E-12));
#133=VECTOR('',#132,3.060303038034E0);
#134=CARTESIAN_POINT('',(-9.436753236815E0,3.950252531694E0,
-7.241776622813E-14));
#135=LINE('',#134,#133);
#136=CARTESIAN_POINT('',(0.E0,6.114213562373E0,0.E0));
#137=DIRECTION('',(0.E0,1.E0,0.E0));
#138=DIRECTION('',(-1.E0,0.E0,0.E0));
#139=AXIS2_PLACEMENT_3D('',#136,#137,#138);
#141=DIRECTION('',(-7.071067811865E-1,7.071067811865E-1,-2.976893178179E-12));
#142=VECTOR('',#141,3.060303038034E0);
#143=CARTESIAN_POINT('',(9.436753236815E0,3.950252531694E0,7.239001065251E-14));
#144=LINE('',#143,#142);
#145=CARTESIAN_POINT('',(0.E0,3.950252531694E0,0.E0));
#146=DIRECTION('',(0.E0,-1.E0,0.E0));
#147=DIRECTION('',(-1.E0,0.E0,0.E0));
#148=AXIS2_PLACEMENT_3D('',#145,#146,#147);
#150=CARTESIAN_POINT('',(0.E0,6.114213562373E0,0.E0));
#151=DIRECTION('',(0.E0,1.E0,0.E0));
#152=DIRECTION('',(1.E0,0.E0,0.E0));
#153=AXIS2_PLACEMENT_3D('',#150,#151,#152);
#155=CARTESIAN_POINT('',(-1.438650070512E1,8.9E0,3.683997551462E-12));
#156=DIRECTION('',(-2.560738079915E-13,0.E0,-1.E0));
#157=DIRECTION('',(7.071067811865E-1,-7.071067811866E-1,-1.810718282970E-13));
#158=AXIS2_PLACEMENT_3D('',#155,#156,#157);
#160=CARTESIAN_POINT('',(5.858578643763E0,4.7E0,0.E0));
#161=DIRECTION('',(0.E0,0.E0,-1.E0));
#162=DIRECTION('',(0.E0,1.E0,0.E0));
#163=AXIS2_PLACEMENT_3D('',#160,#161,#162);
#165=CARTESIAN_POINT('',(0.E0,6.7E0,0.E0));
#166=DIRECTION('',(0.E0,1.E0,0.E0));
#167=DIRECTION('',(1.E0,0.E0,0.E0));
#168=AXIS2_PLACEMENT_3D('',#165,#166,#167);
#170=CARTESIAN_POINT('',(0.E0,6.7E0,0.E0));
#171=DIRECTION('',(0.E0,1.E0,0.E0));
#172=DIRECTION('',(-1.E0,0.E0,0.E0));
#173=AXIS2_PLACEMENT_3D('',#170,#171,#172);
#175=CARTESIAN_POINT('',(-5.858578643763E0,4.7E0,0.E0));
#176=DIRECTION('',(0.E0,0.E0,1.E0));
#177=DIRECTION('',(0.E0,1.E0,0.E0));
#178=AXIS2_PLACEMENT_3D('',#175,#176,#177);
#180=CARTESIAN_POINT('',(1.5475E1,0.E0,0.E0));
#181=CARTESIAN_POINT('',(1.5475E1,1.9E0,0.E0));
#182=VERTEX_POINT('',#180);
#183=VERTEX_POINT('',#181);
#184=CARTESIAN_POINT('',(-1.5475E1,0.E0,0.E0));
#185=CARTESIAN_POINT('',(-1.5475E1,1.9E0,0.E0));
#186=VERTEX_POINT('',#184);
#187=VERTEX_POINT('',#185);
#188=CARTESIAN_POINT('',(6.485786437627E0,4.214213562373E0,0.E0));
#189=CARTESIAN_POINT('',(-6.485786437627E0,4.214213562373E0,0.E0));
#190=VERTEX_POINT('',#188);
#191=VERTEX_POINT('',#189);
#192=CARTESIAN_POINT('',(5.071572875254E0,4.8E0,0.E0));
#193=CARTESIAN_POINT('',(-5.071572875254E0,4.8E0,0.E0));
#194=VERTEX_POINT('',#192);
#195=VERTEX_POINT('',#193);
#196=CARTESIAN_POINT('',(5.858578643763E0,6.7E0,0.E0));
#197=CARTESIAN_POINT('',(-5.858578643763E0,6.7E0,0.E0));
#198=VERTEX_POINT('',#196);
#199=VERTEX_POINT('',#197);
#200=CARTESIAN_POINT('',(7.272792206136E0,6.114213562373E0,0.E0));
#201=CARTESIAN_POINT('',(-7.272792206136E0,6.114213562373E0,0.E0));
#202=VERTEX_POINT('',#200);
#203=VERTEX_POINT('',#201);
#204=CARTESIAN_POINT('',(9.436753236815E0,3.950252531694E0,0.E0));
#205=CARTESIAN_POINT('',(-9.436753236815E0,3.950252531694E0,0.E0));
#206=VERTEX_POINT('',#204);
#207=VERTEX_POINT('',#205);
#208=CARTESIAN_POINT('',(1.438650070512E1,1.9E0,0.E0));
#209=CARTESIAN_POINT('',(-1.438650070512E1,1.9E0,0.E0));
#210=VERTEX_POINT('',#208);
#211=VERTEX_POINT('',#209);
#212=CARTESIAN_POINT('',(1.359949493661E1,0.E0,0.E0));
#213=CARTESIAN_POINT('',(-1.359949493661E1,0.E0,0.E0));
#214=VERTEX_POINT('',#212);
#215=VERTEX_POINT('',#213);
#216=CARTESIAN_POINT('',(8.649747468306E0,2.050252531694E0,0.E0));
#217=CARTESIAN_POINT('',(-8.649747468306E0,2.050252531694E0,0.E0));
#218=VERTEX_POINT('',#216);
#219=VERTEX_POINT('',#217);
#220=CARTESIAN_POINT('',(0.E0,-3.35E-1,0.E0));
#221=DIRECTION('',(0.E0,1.E0,0.E0));
#222=DIRECTION('',(1.E0,0.E0,0.E0));
#223=AXIS2_PLACEMENT_3D('',#220,#221,#222);
#224=CYLINDRICAL_SURFACE('',#223,1.5475E1);
#226=ORIENTED_EDGE('',*,*,#225,.T.);
#228=ORIENTED_EDGE('',*,*,#227,.T.);
#230=ORIENTED_EDGE('',*,*,#229,.F.);
#232=ORIENTED_EDGE('',*,*,#231,.F.);
#233=EDGE_LOOP('',(#226,#228,#230,#232));
#234=FACE_OUTER_BOUND('',#233,.F.);
#236=CARTESIAN_POINT('',(0.E0,-3.35E-1,0.E0));
#237=DIRECTION('',(0.E0,1.E0,0.E0));
#238=DIRECTION('',(1.E0,0.E0,0.E0));
#239=AXIS2_PLACEMENT_3D('',#236,#237,#238);
#240=CYLINDRICAL_SURFACE('',#239,1.5475E1);
#241=ORIENTED_EDGE('',*,*,#225,.F.);
#243=ORIENTED_EDGE('',*,*,#242,.T.);
#244=ORIENTED_EDGE('',*,*,#229,.T.);
#246=ORIENTED_EDGE('',*,*,#245,.F.);
#247=EDGE_LOOP('',(#241,#243,#244,#246));
#248=FACE_OUTER_BOUND('',#247,.F.);
#250=CARTESIAN_POINT('',(0.E0,0.E0,0.E0));
#251=DIRECTION('',(0.E0,1.E0,0.E0));
#252=DIRECTION('',(1.E0,0.E0,0.E0));
#253=AXIS2_PLACEMENT_3D('',#250,#251,#252);
#254=PLANE('',#253);
#255=ORIENTED_EDGE('',*,*,#242,.F.);
#256=ORIENTED_EDGE('',*,*,#231,.T.);
#257=EDGE_LOOP('',(#255,#256));
#258=FACE_OUTER_BOUND('',#257,.F.);
#260=ORIENTED_EDGE('',*,*,#259,.F.);
#262=ORIENTED_EDGE('',*,*,#261,.F.);
#263=EDGE_LOOP('',(#260,#262));
#264=FACE_BOUND('',#263,.F.);
#266=CARTESIAN_POINT('',(0.E0,7.E0,0.E0));
#267=DIRECTION('',(0.E0,1.E0,0.E0));
#268=DIRECTION('',(9.999686096520E-1,0.E0,7.923364859300E-3));
#269=AXIS2_PLACEMENT_3D('',#266,#267,#268);
#270=TOROIDAL_SURFACE('',#269,1.359949493661E1,7.E0);
#271=ORIENTED_EDGE('',*,*,#259,.T.);
#273=ORIENTED_EDGE('',*,*,#272,.T.);
#275=ORIENTED_EDGE('',*,*,#274,.F.);
#277=ORIENTED_EDGE('',*,*,#276,.F.);
#278=EDGE_LOOP('',(#271,#273,#275,#277));
#279=FACE_OUTER_BOUND('',#278,.F.);
#281=CARTESIAN_POINT('',(0.E0,7.E0,0.E0));
#282=DIRECTION('',(0.E0,1.E0,0.E0));
#283=DIRECTION('',(-9.999686096520E-1,0.E0,-7.923364859300E-3));
#284=AXIS2_PLACEMENT_3D('',#281,#282,#283);
#285=TOROIDAL_SURFACE('',#284,1.359949493661E1,7.E0);
#286=ORIENTED_EDGE('',*,*,#261,.T.);
#287=ORIENTED_EDGE('',*,*,#276,.T.);
#289=ORIENTED_EDGE('',*,*,#288,.F.);
#290=ORIENTED_EDGE('',*,*,#272,.F.);
#291=EDGE_LOOP('',(#286,#287,#289,#290));
#292=FACE_OUTER_BOUND('',#291,.F.);
#294=CARTESIAN_POINT('',(0.E0,3.132233047034E0,0.E0));
#295=DIRECTION('',(0.E0,-1.E0,0.E0));
#296=DIRECTION('',(-1.E0,0.E0,0.E0));
#297=AXIS2_PLACEMENT_3D('',#294,#295,#296);
#298=CONICAL_SURFACE('',#297,7.567766952966E0,4.5E1);
#299=ORIENTED_EDGE('',*,*,#288,.T.);
#301=ORIENTED_EDGE('',*,*,#300,.F.);
#303=ORIENTED_EDGE('',*,*,#302,.T.);
#305=ORIENTED_EDGE('',*,*,#304,.T.);
#306=EDGE_LOOP('',(#299,#301,#303,#305));
#307=FACE_OUTER_BOUND('',#306,.F.);
#309=CARTESIAN_POINT('',(0.E0,3.132233047034E0,0.E0));
#310=DIRECTION('',(0.E0,-1.E0,0.E0));
#311=DIRECTION('',(-1.E0,0.E0,0.E0));
#312=AXIS2_PLACEMENT_3D('',#309,#310,#311);
#313=CONICAL_SURFACE('',#312,7.567766952966E0,4.5E1);
#314=ORIENTED_EDGE('',*,*,#274,.T.);
#315=ORIENTED_EDGE('',*,*,#304,.F.);
#317=ORIENTED_EDGE('',*,*,#316,.T.);
#318=ORIENTED_EDGE('',*,*,#300,.T.);
#319=EDGE_LOOP('',(#314,#315,#317,#318));
#320=FACE_OUTER_BOUND('',#319,.F.);
#322=CARTESIAN_POINT('',(0.E0,2.8E0,0.E0));
#323=DIRECTION('',(0.E0,1.E0,0.E0));
#324=DIRECTION('',(-9.999688942074E-1,0.E0,7.887370771501E-3));
#325=AXIS2_PLACEMENT_3D('',#322,#323,#324);
#326=TOROIDAL_SURFACE('',#325,5.071572875254E0,2.E0);
#327=ORIENTED_EDGE('',*,*,#316,.F.);
#329=ORIENTED_EDGE('',*,*,#328,.T.);
#331=ORIENTED_EDGE('',*,*,#330,.T.);
#333=ORIENTED_EDGE('',*,*,#332,.F.);
#334=EDGE_LOOP('',(#327,#329,#331,#333));
#335=FACE_OUTER_BOUND('',#334,.F.);
#337=CARTESIAN_POINT('',(0.E0,2.8E0,0.E0));
#338=DIRECTION('',(0.E0,1.E0,0.E0));
#339=DIRECTION('',(9.999688942074E-1,0.E0,-7.887370771501E-3));
#340=AXIS2_PLACEMENT_3D('',#337,#338,#339);
#341=TOROIDAL_SURFACE('',#340,5.071572875254E0,2.E0);
#342=ORIENTED_EDGE('',*,*,#302,.F.);
#343=ORIENTED_EDGE('',*,*,#332,.T.);
#345=ORIENTED_EDGE('',*,*,#344,.T.);
#346=ORIENTED_EDGE('',*,*,#328,.F.);
#347=EDGE_LOOP('',(#342,#343,#345,#346));
#348=FACE_OUTER_BOUND('',#347,.F.);
#350=CARTESIAN_POINT('',(0.E0,4.8E0,0.E0));
#351=DIRECTION('',(0.E0,1.E0,0.E0));
#352=DIRECTION('',(1.E0,0.E0,0.E0));
#353=AXIS2_PLACEMENT_3D('',#350,#351,#352);
#354=PLANE('',#353);
#355=ORIENTED_EDGE('',*,*,#344,.F.);
#356=ORIENTED_EDGE('',*,*,#330,.F.);
#357=EDGE_LOOP('',(#355,#356));
#358=FACE_OUTER_BOUND('',#357,.F.);
#360=CARTESIAN_POINT('',(0.E0,1.9E0,0.E0));
#361=DIRECTION('',(0.E0,1.E0,0.E0));
#362=DIRECTION('',(1.E0,0.E0,0.E0));
#363=AXIS2_PLACEMENT_3D('',#360,#361,#362);
#364=PLANE('',#363);
#365=ORIENTED_EDGE('',*,*,#245,.T.);
#366=ORIENTED_EDGE('',*,*,#227,.F.);
#367=EDGE_LOOP('',(#365,#366));
#368=FACE_OUTER_BOUND('',#367,.F.);
#370=ORIENTED_EDGE('',*,*,#369,.F.);
#372=ORIENTED_EDGE('',*,*,#371,.F.);
#373=EDGE_LOOP('',(#370,#372));
#374=FACE_BOUND('',#373,.F.);
#376=CARTESIAN_POINT('',(0.E0,8.9E0,0.E0));
#377=DIRECTION('',(0.E0,1.E0,0.E0));
#378=DIRECTION('',(9.999756442435E-1,0.E0,-6.979320863844E-3));
#379=AXIS2_PLACEMENT_3D('',#376,#377,#378);
#380=TOROIDAL_SURFACE('',#379,1.438650070512E1,7.E0);
#382=ORIENTED_EDGE('',*,*,#381,.F.);
#384=ORIENTED_EDGE('',*,*,#383,.T.);
#385=ORIENTED_EDGE('',*,*,#369,.T.);
#387=ORIENTED_EDGE('',*,*,#386,.F.);
#388=EDGE_LOOP('',(#382,#384,#385,#387));
#389=FACE_OUTER_BOUND('',#388,.F.);
#391=CARTESIAN_POINT('',(0.E0,5.032233047034E0,0.E0));
#392=DIRECTION('',(0.E0,-1.E0,0.E0));
#393=DIRECTION('',(-1.E0,0.E0,0.E0));
#394=AXIS2_PLACEMENT_3D('',#391,#392,#393);
#395=CONICAL_SURFACE('',#394,8.354772721475E0,4.5E1);
#396=ORIENTED_EDGE('',*,*,#381,.T.);
#398=ORIENTED_EDGE('',*,*,#397,.T.);
#400=ORIENTED_EDGE('',*,*,#399,.T.);
#402=ORIENTED_EDGE('',*,*,#401,.F.);
#403=EDGE_LOOP('',(#396,#398,#400,#402));
#404=FACE_OUTER_BOUND('',#403,.F.);
#406=CARTESIAN_POINT('',(0.E0,5.032233047034E0,0.E0));
#407=DIRECTION('',(0.E0,-1.E0,0.E0));
#408=DIRECTION('',(-1.E0,0.E0,0.E0));
#409=AXIS2_PLACEMENT_3D('',#406,#407,#408);
#410=CONICAL_SURFACE('',#409,8.354772721475E0,4.5E1);
#412=ORIENTED_EDGE('',*,*,#411,.T.);
#413=ORIENTED_EDGE('',*,*,#401,.T.);
#415=ORIENTED_EDGE('',*,*,#414,.T.);
#416=ORIENTED_EDGE('',*,*,#397,.F.);
#417=EDGE_LOOP('',(#412,#413,#415,#416));
#418=FACE_OUTER_BOUND('',#417,.F.);
#420=CARTESIAN_POINT('',(0.E0,8.9E0,0.E0));
#421=DIRECTION('',(0.E0,1.E0,0.E0));
#422=DIRECTION('',(-9.999756442435E-1,0.E0,6.979320863844E-3));
#423=AXIS2_PLACEMENT_3D('',#420,#421,#422);
#424=TOROIDAL_SURFACE('',#423,1.438650070512E1,7.E0);
#425=ORIENTED_EDGE('',*,*,#411,.F.);
#426=ORIENTED_EDGE('',*,*,#386,.T.);
#427=ORIENTED_EDGE('',*,*,#371,.T.);
#428=ORIENTED_EDGE('',*,*,#383,.F.);
#429=EDGE_LOOP('',(#425,#426,#427,#428));
#430=FACE_OUTER_BOUND('',#429,.F.);
#432=CARTESIAN_POINT('',(0.E0,4.7E0,0.E0));
#433=DIRECTION('',(0.E0,1.E0,0.E0));
#434=DIRECTION('',(9.999719305700E-1,0.E0,7.492534424763E-3));
#435=AXIS2_PLACEMENT_3D('',#432,#433,#434);
#436=TOROIDAL_SURFACE('',#435,5.858578643763E0,2.E0);
#438=ORIENTED_EDGE('',*,*,#437,.T.);
#440=ORIENTED_EDGE('',*,*,#439,.T.);
#441=ORIENTED_EDGE('',*,*,#414,.F.);
#443=ORIENTED_EDGE('',*,*,#442,.F.);
#444=EDGE_LOOP('',(#438,#440,#441,#443));
#445=FACE_OUTER_BOUND('',#444,.F.);
#447=CARTESIAN_POINT('',(0.E0,6.7E0,0.E0));
#448=DIRECTION('',(0.E0,1.E0,0.E0));
#449=DIRECTION('',(1.E0,0.E0,0.E0));
#450=AXIS2_PLACEMENT_3D('',#447,#448,#449);
#451=PLANE('',#450);
#452=ORIENTED_EDGE('',*,*,#437,.F.);
#454=ORIENTED_EDGE('',*,*,#453,.F.);
#455=EDGE_LOOP('',(#452,#454));
#456=FACE_OUTER_BOUND('',#455,.F.);
#458=CARTESIAN_POINT('',(0.E0,4.7E0,0.E0));
#459=DIRECTION('',(0.E0,1.E0,0.E0));
#460=DIRECTION('',(-9.999719305700E-1,0.E0,-7.492534424763E-3));
#461=AXIS2_PLACEMENT_3D('',#458,#459,#460);
#462=TOROIDAL_SURFACE('',#461,5.858578643763E0,2.E0);
#463=ORIENTED_EDGE('',*,*,#453,.T.);
#464=ORIENTED_EDGE('',*,*,#442,.T.);
#465=ORIENTED_EDGE('',*,*,#399,.F.);
#466=ORIENTED_EDGE('',*,*,#439,.F.);
#467=EDGE_LOOP('',(#463,#464,#465,#466));
#468=FACE_OUTER_BOUND('',#467,.F.);
#474=PLANE_ANGLE_MEASURE_WITH_UNIT(PLANE_ANGLE_MEASURE(1.745329251994E-2),#473);
#475=(CONVERSION_BASED_UNIT('DEGREE',#474)NAMED_UNIT(*)PLANE_ANGLE_UNIT());
#477=UNCERTAINTY_MEASURE_WITH_UNIT(LENGTH_MEASURE(4.427796458214E-3),#472,
'closure',
'Maximum model space distance between geometric entities at asserted connectivities');
#480=APPLICATION_CONTEXT('automotive design');
#481=APPLICATION_PROTOCOL_DEFINITION('international standard',
'config_control_design',1994,#480);
#482=PRODUCT_DEFINITION_CONTEXT('',#480,'design');
#483=PRODUCT_CONTEXT('',#480,'mechanical');
#484=PRODUCT('321511790','321511790','NOT SPECIFIED',(#483));
#485=PRODUCT_DEFINITION_FORMATION_WITH_SPECIFIED_SOURCE('1','LAST_VERSION',#484,
.MADE.);
#493=DERIVED_UNIT_ELEMENT(#492,2.E0);
#494=AREA_UNIT((#493));
#495=MEASURE_REPRESENTATION_ITEM('surface area measure',AREA_MEASURE(
1.861950876424E3),#494);
#500=DERIVED_UNIT_ELEMENT(#499,3.E0);
#501=VOLUME_UNIT((#500));
#502=MEASURE_REPRESENTATION_ITEM('volume measure',VOLUME_MEASURE(
1.640568598087E3),#501);
#506=CARTESIAN_POINT('centre point',(0.E0,2.662871200266E0,2.238300100764E-14));
#511=DERIVED_UNIT_ELEMENT(#510,2.E0);
#512=AREA_UNIT((#511));
#513=MEASURE_REPRESENTATION_ITEM('surface area measure',AREA_MEASURE(
1.861950876424E3),#512);
#518=DERIVED_UNIT_ELEMENT(#517,3.E0);
#519=VOLUME_UNIT((#518));
#520=MEASURE_REPRESENTATION_ITEM('volume measure',VOLUME_MEASURE(
1.640568598087E3),#519);
#524=CARTESIAN_POINT('centre point',(0.E0,2.662871200266E0,2.238300100764E-14));
#1=DRAUGHTING_PRE_DEFINED_COLOUR('green');
#2=COLOUR_RGB('',1.1E-2,1.2E-2,1.E0);
#3=COLOUR_RGB('',1.070501960750E-1,1.156407479236E-1,1.262135922330E-1);
#4=COLOUR_RGB('',4.076142081316E-1,4.403243863243E-1,4.805825242718E-1);
#5=COLOUR_RGB('',4.1E-1,2.61589E-1,1.12848E-1);
#6=COLOUR_RGB('',5.04854E-1,1.5455E-2,1.5455E-2);
#7=COLOUR_RGB('',6.35294E-1,6.86275E-1,7.4902E-1);
#8=COLOUR_RGB('',6.40777E-1,6.40777E-1,6.40777E-1);
#9=COLOUR_RGB('',6.69062E-1,6.69903E-1,6.55217E-1);
#10=COLOUR_RGB('',9.21569E-1,7.05882E-1,4.70588E-1);
#11=DRAUGHTING_PRE_DEFINED_COLOUR('red');
#12=DRAUGHTING_PRE_DEFINED_COLOUR('yellow');
#13=COLOUR_RGB('',1.E0,1.E0,5.3E-1);
#14=COLOUR_RGB('',1.E0,1.E0,9.49E-1);
#15=DRAUGHTING_PRE_DEFINED_COLOUR('white');
#20=CIRCLE('',#19,1.5475E1);
#29=CIRCLE('',#28,1.5475E1);
#38=CIRCLE('',#37,1.359949493661E1);
#43=CIRCLE('',#42,1.359949493661E1);
#48=CIRCLE('',#47,7.E0);
#53=CIRCLE('',#52,7.E0);
#58=CIRCLE('',#57,8.649747468306E0);
#67=CIRCLE('',#66,6.485786437627E0);
#76=CIRCLE('',#75,8.649747468306E0);
#81=CIRCLE('',#80,6.485786437627E0);
#86=CIRCLE('',#85,2.E0);
#91=CIRCLE('',#90,2.E0);
#96=CIRCLE('',#95,5.071572875254E0);
#101=CIRCLE('',#100,5.071572875254E0);
#106=CIRCLE('',#105,1.5475E1);
#111=CIRCLE('',#110,1.5475E1);
#116=CIRCLE('',#115,1.438650070512E1);
#121=CIRCLE('',#120,1.438650070512E1);
#126=CIRCLE('',#125,7.E0);
#131=CIRCLE('',#130,9.436753236815E0);
#140=CIRCLE('',#139,7.272792206136E0);
#149=CIRCLE('',#148,9.436753236815E0);
#154=CIRCLE('',#153,7.272792206136E0);
#159=CIRCLE('',#158,7.E0);
#164=CIRCLE('',#163,2.E0);
#169=CIRCLE('',#168,5.858578643763E0);
#174=CIRCLE('',#173,5.858578643763E0);
#179=CIRCLE('',#178,2.E0);
#225=EDGE_CURVE('',#182,#183,#24,.T.);
#227=EDGE_CURVE('',#183,#187,#111,.T.);
#229=EDGE_CURVE('',#186,#187,#33,.T.);
#231=EDGE_CURVE('',#182,#186,#20,.T.);
#235=ADVANCED_FACE('',(#234),#224,.T.);
#242=EDGE_CURVE('',#182,#186,#29,.T.);
#245=EDGE_CURVE('',#183,#187,#106,.T.);
#249=ADVANCED_FACE('',(#248),#240,.T.);
#259=EDGE_CURVE('',#214,#215,#38,.T.);
#261=EDGE_CURVE('',#215,#214,#43,.T.);
#265=ADVANCED_FACE('',(#258,#264),#254,.F.);
#272=EDGE_CURVE('',#215,#219,#53,.T.);
#274=EDGE_CURVE('',#218,#219,#76,.T.);
#276=EDGE_CURVE('',#214,#218,#48,.T.);
#280=ADVANCED_FACE('',(#279),#270,.T.);
#288=EDGE_CURVE('',#219,#218,#58,.T.);
#293=ADVANCED_FACE('',(#292),#285,.T.);
#300=EDGE_CURVE('',#190,#218,#62,.T.);
#302=EDGE_CURVE('',#190,#191,#67,.T.);
#304=EDGE_CURVE('',#191,#219,#71,.T.);
#308=ADVANCED_FACE('',(#307),#298,.F.);
#316=EDGE_CURVE('',#191,#190,#81,.T.);
#321=ADVANCED_FACE('',(#320),#313,.F.);
#328=EDGE_CURVE('',#191,#195,#86,.T.);
#330=EDGE_CURVE('',#195,#194,#101,.T.);
#332=EDGE_CURVE('',#190,#194,#91,.T.);
#336=ADVANCED_FACE('',(#335),#326,.F.);
#344=EDGE_CURVE('',#194,#195,#96,.T.);
#349=ADVANCED_FACE('',(#348),#341,.F.);
#359=ADVANCED_FACE('',(#358),#354,.F.);
#369=EDGE_CURVE('',#210,#211,#116,.T.);
#371=EDGE_CURVE('',#211,#210,#121,.T.);
#375=ADVANCED_FACE('',(#368,#374),#364,.T.);
#381=EDGE_CURVE('',#206,#207,#131,.T.);
#383=EDGE_CURVE('',#206,#210,#126,.T.);
#386=EDGE_CURVE('',#207,#211,#159,.T.);
#390=ADVANCED_FACE('',(#389),#380,.F.);
#397=EDGE_CURVE('',#207,#203,#135,.T.);
#399=EDGE_CURVE('',#203,#202,#140,.T.);
#401=EDGE_CURVE('',#206,#202,#144,.T.);
#405=ADVANCED_FACE('',(#404),#395,.T.);
#411=EDGE_CURVE('',#207,#206,#149,.T.);
#414=EDGE_CURVE('',#202,#203,#154,.T.);
#419=ADVANCED_FACE('',(#418),#410,.T.);
#431=ADVANCED_FACE('',(#430),#424,.F.);
#437=EDGE_CURVE('',#198,#199,#169,.T.);
#439=EDGE_CURVE('',#199,#203,#179,.T.);
#442=EDGE_CURVE('',#198,#202,#164,.T.);
#446=ADVANCED_FACE('',(#445),#436,.T.);
#453=EDGE_CURVE('',#199,#198,#174,.T.);
#457=ADVANCED_FACE('',(#456),#451,.T.);
#469=ADVANCED_FACE('',(#468),#462,.T.);
#470=CLOSED_SHELL('',(#235,#249,#265,#280,#293,#308,#321,#336,#349,#359,#375,
#390,#405,#419,#431,#446,#457,#469));
#471=MANIFOLD_SOLID_BREP('',#470);
#472=(LENGTH_UNIT()NAMED_UNIT(*)SI_UNIT(.MILLI.,.METRE.));
#473=(NAMED_UNIT(*)PLANE_ANGLE_UNIT()SI_UNIT($,.RADIAN.));
#476=(NAMED_UNIT(*)SI_UNIT($,.STERADIAN.)SOLID_ANGLE_UNIT());
#478=(GEOMETRIC_REPRESENTATION_CONTEXT(3)GLOBAL_UNCERTAINTY_ASSIGNED_CONTEXT((
#477))GLOBAL_UNIT_ASSIGNED_CONTEXT((#472,#475,#476))REPRESENTATION_CONTEXT
('ID1','3'));
#479=ADVANCED_BREP_SHAPE_REPRESENTATION('',(#471),#478);
#486=PRODUCT_DEFINITION('design','',#485,#482);
#487=PRODUCT_DEFINITION_SHAPE('','SHAPE FOR 321511790.',#486);
#488=SHAPE_ASPECT('','solid data associated with 321511790',#487,.F.);
#489=PROPERTY_DEFINITION('',
'shape for solid data with which properties are associated',#488);
#490=SHAPE_REPRESENTATION('',(#471),#478);
#491=SHAPE_DEFINITION_REPRESENTATION(#489,#490);
#492=(LENGTH_UNIT()NAMED_UNIT(*)SI_UNIT(.MILLI.,.METRE.));
#496=PROPERTY_DEFINITION('geometric validation property','area of 321511790',
#488);
#497=REPRESENTATION('surface area',(#495),#478);
#498=PROPERTY_DEFINITION_REPRESENTATION(#496,#497);
#499=(LENGTH_UNIT()NAMED_UNIT(*)SI_UNIT(.MILLI.,.METRE.));
#503=PROPERTY_DEFINITION('geometric validation property','volume of 321511790',
#488);
#504=REPRESENTATION('volume',(#502),#478);
#505=PROPERTY_DEFINITION_REPRESENTATION(#503,#504);
#507=PROPERTY_DEFINITION('geometric validation property',
'centroid of 321511790',#488);
#508=REPRESENTATION('centroid',(#506),#478);
#509=PROPERTY_DEFINITION_REPRESENTATION(#507,#508);
#510=(LENGTH_UNIT()NAMED_UNIT(*)SI_UNIT(.MILLI.,.METRE.));
#514=PROPERTY_DEFINITION('geometric validation property','area of 321511790',
#487);
#515=REPRESENTATION('surface area',(#513),#478);
#516=PROPERTY_DEFINITION_REPRESENTATION(#514,#515);
#517=(LENGTH_UNIT()NAMED_UNIT(*)SI_UNIT(.MILLI.,.METRE.));
#521=PROPERTY_DEFINITION('geometric validation property','volume of 321511790',
#487);
#522=REPRESENTATION('volume',(#520),#478);
#523=PROPERTY_DEFINITION_REPRESENTATION(#521,#522);
#525=PROPERTY_DEFINITION('geometric validation property',
'centroid of 321511790',#487);
#526=REPRESENTATION('centroid',(#524),#478);
#527=PROPERTY_DEFINITION_REPRESENTATION(#525,#526);
#528=SHAPE_DEFINITION_REPRESENTATION(#487,#479);
ENDSEC;
END-ISO-10303-21;
